<svg viewBox="0 0 24 24" fill="none"><path stroke="currentColor" stroke-linecap="round" stroke-linejoin="round" stroke-width="var(--_size, 1.5)" d="M12.14 15.07v-1.96c0-2.52 2.04-4.57 4.57-4.57h1.96"/><path stroke="currentColor" stroke-linecap="round" stroke-linejoin="round" stroke-width="var(--_size, 1.5)" d="M5.62 8.55h1.96c2.52 0 4.57 2.04 4.57 4.57v4.13"/><path stroke="currentColor" stroke-linecap="round" stroke-linejoin="round" stroke-width="var(--_size, 1.5)" d="m7.14 6.75-1.8 1.8 1.8 1.8M16.86 6.75l1.8 1.8-1.8 1.8"/><path stroke="currentColor" stroke-linecap="round" stroke-linejoin="round" stroke-width="var(--_size, 1.5)" d="M2 9c0-5 2-7 7-7h6c5 0 7 2 7 7v6c0 5-2 7-7 7H9c-5 0-7-2-7-7v-1.98"/></svg>