<svg viewBox="0 0 24 24" fill="none"><path stroke="currentColor" stroke-linecap="round" stroke-linejoin="round" stroke-miterlimit="10" stroke-width="var(--_size, 1.5)" d="M6 10h16"/><path stroke="currentColor" stroke-linecap="round" stroke-linejoin="round" stroke-width="var(--_size, 1.5)" d="M11.55 20.5H6.44c-3.55 0-4.45-.88-4.45-4.39V7.89c0-3.18.74-4.2 3.53-4.36.28-.01.59-.02.92-.02h11.11c3.55 0 4.45.88 4.45 4.39v4.41"/><path stroke="currentColor" stroke-linecap="round" stroke-linejoin="round" stroke-miterlimit="10" stroke-width="var(--_size, 1.5)" d="M6 16h4M22 18c0 .75-.21 1.46-.58 2.06A3.97 3.97 0 0 1 18 22a3.97 3.97 0 0 1-3.42-1.94A3.92 3.92 0 0 1 14 18c0-2.21 1.79-4 4-4s4 1.79 4 4Z"/><path stroke="currentColor" stroke-linecap="round" stroke-linejoin="round" stroke-width="var(--_size, 1.5)" d="m16.44 18 .99.99 2.13-1.97"/></svg>