<svg viewBox="0 0 24 24" fill="none"><path stroke="currentColor" stroke-linecap="round" stroke-linejoin="round" stroke-miterlimit="10" stroke-width="1.5" d="M22 13.14V15c0 3.5-2 5-5 5H8.5M2 15.3V9c0-3.5 2-5 5-5h10c3 0 5 1.5 5 5"/><path stroke="currentColor" stroke-linecap="round" stroke-linejoin="round" stroke-miterlimit="10" stroke-width="1.5" d="M14.5 12a2.5 2.5 0 0 0-5 0 2.5 2.5 0 0 0 2.5 2.5M18.5 9.5v5M9 18c0 .75-.21 1.46-.58 2.06A3.97 3.97 0 0 1 5 22a3.97 3.97 0 0 1-3.42-1.94A3.92 3.92 0 0 1 1 18c0-2.21 1.79-4 4-4s4 1.79 4 4ZM6.069 19.04l-2.11-2.11M6.04 16.96l-2.11 2.11"/></svg>