<svg viewBox="0 0 24 24" fill="none"><path stroke="currentColor" stroke-linecap="round" stroke-linejoin="round" stroke-width="var(--_size, 1.5)" d="M2 9c0-5 2-7 7-7h6c5 0 7 2 7 7v6c0 5-2 7-7 7H9c-5 0-7-2-7-7v-1.41M7 2.5v19"/><path stroke="currentColor" stroke-linecap="round" stroke-linejoin="round" stroke-width="var(--_size, 1.5)" d="M11.47 16.8a1.49 1.49 0 1 0 0-2.98 1.49 1.49 0 0 0 0 2.98Z"/><path stroke="currentColor" stroke-linecap="round" stroke-linejoin="round" stroke-width="var(--_size, 1.5)" d="M18.43 14.31V8.48c0-1.24-.78-1.41-1.57-1.2l-2.98.81c-.54.15-.92.58-.92 1.2v6.01"/><path stroke="currentColor" stroke-linecap="round" stroke-linejoin="round" stroke-width="var(--_size, 1.5)" d="M16.931 15.8a1.49 1.49 0 1 0 0-2.98 1.49 1.49 0 0 0 0 2.98ZM12.96 11.04l5.47-1.49"/></svg>