<svg viewBox="0 0 24 24" fill="none"><path stroke="currentColor" stroke-linecap="round" stroke-linejoin="round" stroke-width="var(--_size, 1.5)" d="m8.32 15.27 6.54-6.54M8.73 10.37a1.23 1.23 0 1 0 0-2.46 1.23 1.23 0 0 0 0 2.46ZM15.269 16.09a1.23 1.23 0 1 0 0-2.46 1.23 1.23 0 0 0 0 2.46Z"/><path stroke="currentColor" stroke-linecap="round" stroke-linejoin="round" stroke-width="var(--_size, 1.5)" d="M4 6c-1.25 1.67-2 3.75-2 6 0 5.52 4.48 10 10 10s10-4.48 10-10S17.52 2 12 2c-1.43 0-2.8.3-4.03.85"/></svg>