<svg viewBox="0 0 24 24" fill="none"><path stroke="currentColor" stroke-linecap="round" stroke-linejoin="round" stroke-width="var(--_size, 1.5)" d="M2 6c0-2.21 1.79-4 4-4h9v10c0 1.1-.9 2-2 2H2v-3.01"/><path stroke="currentColor" stroke-linecap="round" stroke-linejoin="round" stroke-width="var(--_size, 1.5)" d="M19 20h-1c0-1.1-.9-2-2-2s-2 .9-2 2h-4c0-1.1-.9-2-2-2s-2 .9-2 2H5c-1.66 0-3-1.34-3-3v-3h11c1.1 0 2-.9 2-2V5h1.84c.72 0 1.38.39 1.74 1.01L20.29 9H19c-.55 0-1 .45-1 1v3c0 .55.45 1 1 1h3v3"/><path stroke="currentColor" stroke-linecap="round" stroke-linejoin="round" stroke-width="var(--_size, 1.5)" d="M8 22a2 2 0 1 0 0-4 2 2 0 0 0 0 4ZM16 22a2 2 0 1 0 0-4 2 2 0 0 0 0 4ZM22 12v2h-3c-.55 0-1-.45-1-1v-3c0-.55.45-1 1-1h1.29L22 12Z"/></svg>