<svg viewBox="0 0 24 24" fill="none"><path fill="currentColor" d="M2 9.75c-.41 0-.75-.34-.75-.75V6.5c0-2.9 2.36-5.25 5.25-5.25H9c.41 0 .75.34.75.75s-.34.75-.75.75H6.5c-2.07 0-3.75 1.68-3.75 3.75V9c0 .41-.34.75-.75.75Z" opacity=".4"/><path fill="currentColor" d="M22 9.75c-.41 0-.75-.34-.75-.75V6.5c0-2.07-1.68-3.75-3.75-3.75H15c-.41 0-.75-.34-.75-.75s.34-.75.75-.75h2.5c2.89 0 5.25 2.35 5.25 5.25V9c0 .41-.34.75-.75.75Z"/><path fill="currentColor" d="M17.5 22.75H16c-.41 0-.75-.34-.75-.75s.34-.75.75-.75h1.5c2.07 0 3.75-1.68 3.75-3.75V16c0-.41.34-.75.75-.75s.75.34.75.75v1.5c0 2.9-2.36 5.25-5.25 5.25Z" opacity=".4"/><path fill="currentColor" d="M9 22.75H6.5c-2.89 0-5.25-2.35-5.25-5.25V15c0-.41.34-.75.75-.75s.75.34.75.75v2.5c0 2.07 1.68 3.75 3.75 3.75H9c.41 0 .75.34.75.75s-.34.75-.75.75ZM8.5 11.38a2.88 2.88 0 1 0 0-5.76 2.88 2.88 0 0 0 0 5.76Z"/><path fill="currentColor" d="M7.5 18.38a1.88 1.88 0 1 0 0-3.76 1.88 1.88 0 0 0 0 3.76ZM16.5 9.38a1.88 1.88 0 1 0 0-3.76 1.88 1.88 0 0 0 0 3.76Z" opacity=".4"/><path fill="currentColor" d="M15.5 18.38a2.88 2.88 0 1 0 0-5.76 2.88 2.88 0 0 0 0 5.76Z"/></svg>