<svg viewBox="0 0 24 24" fill="none"><path fill="currentColor" d="M18.51 1.8c-.5 0-.9.4-.9.9v4.65c0 .5.4.9.9.9s.9-.4.9-.9V2.7c0-.5-.4-.9-.9-.9Z" opacity=".4"/><path fill="currentColor" d="M12 15.75c-.5 0-.9.4-.9.9v4.65c0 .5.4.9.9.9s.9-.4.9-.9v-4.65c0-.49-.4-.9-.9-.9Z"/><path fill="currentColor" d="M5.49 1.8c-.5 0-.9.4-.9.9v4.65c0 .5.4.9.9.9s.9-.4.9-.9V2.7c0-.5-.41-.9-.9-.9ZM7.35 10.17H3.63c-.5 0-.9.4-.9.9s.4.9.9.9h.96v9.33c0 .5.4.9.9.9s.9-.4.9-.9v-9.33h.96c.5 0 .9-.4.9-.9s-.41-.9-.9-.9ZM20.37 10.17h-3.72c-.5 0-.9.4-.9.9s.4.9.9.9h.96v9.33c0 .5.4.9.9.9s.9-.4.9-.9v-9.33h.96c.5 0 .9-.4.9-.9s-.4-.9-.9-.9Z" opacity=".4"/><path fill="currentColor" d="M13.86 12.03h-.96V2.7c0-.5-.4-.9-.9-.9s-.9.4-.9.9v9.33h-.96c-.5 0-.9.4-.9.9s.4.9.9.9h3.72c.5 0 .9-.4.9-.9s-.4-.9-.9-.9Z"/></svg>