<svg viewBox="0 0 24 24" fill="none"><path fill="currentColor" d="M12 5.25H3c-.41 0-.75-.34-.75-.75s.34-.75.75-.75h9c.41 0 .75.34.75.75s-.34.75-.75.75Z"/><path fill="currentColor" d="M12 10.25H3c-.41 0-.75-.34-.75-.75s.34-.75.75-.75h9c.41 0 .75.34.75.75s-.34.75-.75.75Z" opacity=".4"/><path fill="currentColor" d="M21 15.25H3c-.41 0-.75-.34-.75-.75s.34-.75.75-.75h18c.41 0 .75.34.75.75s-.34.75-.75.75Z"/><path fill="currentColor" d="M21 20.25H3c-.41 0-.75-.34-.75-.75s.34-.75.75-.75h18c.41 0 .75.34.75.75s-.34.75-.75.75Z" opacity=".4"/></svg>