<svg viewBox="0 0 24 24" fill="none"><path fill="currentColor" d="M21 5.25H3c-.41 0-.75-.34-.75-.75s.34-.75.75-.75h18c.41 0 .75.34.75.75s-.34.75-.75.75Z"/><path fill="currentColor" d="M12.47 10.25H3c-.41 0-.75-.34-.75-.75s.34-.75.75-.75h9.47a.749.749 0 1 1 0 1.5Z" opacity=".4"/><path fill="currentColor" d="M21 15.25H3c-.41 0-.75-.34-.75-.75s.34-.75.75-.75h18c.41 0 .75.34.75.75s-.34.75-.75.75Z"/><path fill="currentColor" d="M12.47 20.25H3c-.41 0-.75-.34-.75-.75s.34-.75.75-.75h9.47a.749.749 0 1 1 0 1.5Z" opacity=".4"/></svg>