<svg viewBox="0 0 24 24" fill="none"><path fill="currentColor" d="M16.19 2H7.82C4.18 2 2.01 4.17 2.01 7.81v8.37c0 3.64 2.17 5.81 5.81 5.81h8.37c3.64 0 5.81-2.17 5.81-5.81V7.81C22 4.17 19.83 2 16.19 2Z" opacity=".4"/><path fill="currentColor" d="M6 14.89c-.41 0-.75-.34-.75-.75V9.85c0-.41.34-.75.75-.75s.75.34.75.75v4.29c0 .42-.34.75-.75.75ZM9 16.32c-.41 0-.75-.34-.75-.75V8.43c0-.41.34-.75.75-.75s.75.34.75.75v7.14c0 .42-.34.75-.75.75ZM12 17.75c-.41 0-.75-.34-.75-.75V7c0-.41.34-.75.75-.75s.75.34.75.75v10c0 .41-.34.75-.75.75ZM15 16.32c-.41 0-.75-.34-.75-.75V8.43c0-.41.34-.75.75-.75s.75.34.75.75v7.14c0 .42-.34.75-.75.75ZM18 14.89c-.41 0-.75-.34-.75-.75V9.85c0-.41.34-.75.75-.75s.75.34.75.75v4.29c0 .42-.34.75-.75.75Z"/></svg>