<svg xmlns="http://www.w3.org/2000/svg" width="24" height="24" fill="none"><path stroke="#292D32" stroke-linecap="round" stroke-linejoin="round" stroke-miterlimit="10" stroke-width="1.5" d="M13 22H5c-2 0-3-1-3-3v-8c0-2 1-3 3-3h5v11c0 2 1 3 3 3Z"/><path stroke="#292D32" stroke-linecap="round" stroke-linejoin="round" stroke-miterlimit="10" stroke-width="1.5" d="M10.11 4c-.08.3-.11.63-.11 1v3H5V6c0-1.1.9-2 2-2h3.11ZM14 8v5M18 8v5" opacity=".4"/><path stroke="#292D32" stroke-linecap="round" stroke-linejoin="round" stroke-miterlimit="10" stroke-width="1.5" d="M17 17h-2c-.55 0-1 .45-1 1v4h4v-4c0-.55-.45-1-1-1Z"/><path stroke="#292D32" stroke-linecap="round" stroke-linejoin="round" stroke-miterlimit="10" stroke-width="1.5" d="M6 13v4" opacity=".4"/><path stroke="#292D32" stroke-linecap="round" stroke-linejoin="round" stroke-miterlimit="10" stroke-width="1.5" d="M10 19V5c0-2 1-3 3-3h6c2 0 3 1 3 3v14c0 2-1 3-3 3h-6c-2 0-3-1-3-3Z"/></svg>