<svg viewBox="0 0 24 24" fill="none"><path stroke="currentColor" stroke-linecap="round" stroke-linejoin="round" stroke-width="var(--_size, 1.5)" d="M7.26 2h9.47c.65 0 1.23.02 1.75.09C21.25 2.4 22 3.7 22 7.26v6.32c0 3.56-.75 4.86-3.52 5.17-.52.07-1.09.09-1.75.09H7.26c-.65 0-1.23-.02-1.75-.09-2.77-.31-3.52-1.61-3.52-5.17V7.26c0-3.56.75-4.86 3.52-5.17.52-.07 1.1-.09 1.75-.09Z"/><path stroke="currentColor" stroke-linecap="round" stroke-linejoin="round" stroke-width="var(--_size, 1.5)" d="M13.58 8.32h3.68M6.74 14.11h10.53M7 22h10" opacity=".4"/><path stroke="currentColor" stroke-linecap="round" stroke-linejoin="round" stroke-width="2" d="M7.195 8.3h.009M10.495 8.3h.009" opacity=".4"/></svg>