<svg viewBox="0 0 24 24" fill="none"><path stroke="currentColor" stroke-linecap="round" stroke-linejoin="round" stroke-width="var(--_size, 1.5)" d="M3.5 20.5c.83.83 2.17.83 3 0l13-13c.83-.83.83-2.17 0-3-.83-.83-2.17-.83-3 0l-13 13c-.83.83-.83 2.17 0 3Z"/><path stroke="currentColor" stroke-linecap="round" stroke-linejoin="round" stroke-width="var(--_size, 1.5)" d="m18.01 8.99-3-3" opacity=".4"/><path stroke="currentColor" stroke-linecap="round" stroke-linejoin="round" d="M8.5 2.44 10 2l-.44 1.5L10 5l-1.5-.44L7 5l.44-1.5L7 2l1.5.44ZM4.5 8.44 6 8l-.44 1.5L6 11l-1.5-.44L3 11l.44-1.5L3 8l1.5.44ZM19.5 13.44 21 13l-.44 1.5L21 16l-1.5-.44L18 16l.44-1.5L18 13l1.5.44Z" opacity=".4"/></svg>