<svg viewBox="0 0 24 24" fill="none"><path stroke="currentColor" stroke-linecap="round" stroke-linejoin="round" stroke-miterlimit="10" stroke-width="var(--_size, 1.5)" d="M17.54 8.31a2.46 2.46 0 1 0 0-4.92 2.46 2.46 0 0 0 0 4.92Z"/><path stroke="currentColor" stroke-linecap="round" stroke-linejoin="round" stroke-miterlimit="10" stroke-width="var(--_size, 1.5)" d="M6.46 8.31a2.46 2.46 0 1 0 0-4.92 2.46 2.46 0 0 0 0 4.92ZM17.54 20.61a2.46 2.46 0 1 0 0-4.92 2.46 2.46 0 0 0 0 4.92Z" opacity=".4"/><path stroke="currentColor" stroke-linecap="round" stroke-linejoin="round" stroke-miterlimit="10" stroke-width="var(--_size, 1.5)" d="M6.46 20.61a2.46 2.46 0 1 0 0-4.92 2.46 2.46 0 0 0 0 4.92Z"/></svg>