<svg viewBox="0 0 24 24" fill="none"><path stroke="currentColor" stroke-linecap="round" stroke-linejoin="round" stroke-width="var(--_size, 1.5)" d="M12 9.32c1.19 0 2.16-.97 2.16-2.16C14.16 5.97 13.19 5 12 5c-1.19 0-2.16.97-2.16 2.16 0 1.19.97 2.16 2.16 2.16Z"/><path stroke="currentColor" stroke-linecap="round" stroke-linejoin="round" stroke-width="var(--_size, 1.5)" d="M6.79 19c1.19 0 2.16-.97 2.16-2.16 0-1.19-.97-2.16-2.16-2.16-1.19 0-2.16.97-2.16 2.16 0 1.19.96 2.16 2.16 2.16Z" opacity=".4"/><path stroke="currentColor" stroke-linecap="round" stroke-linejoin="round" stroke-width="var(--_size, 1.5)" d="M17.21 19c1.19 0 2.16-.97 2.16-2.16 0-1.19-.97-2.16-2.16-2.16-1.19 0-2.16.97-2.16 2.16 0 1.19.97 2.16 2.16 2.16Z"/></svg>