<svg viewBox="0 0 24 24" fill="none"><path stroke="currentColor" stroke-linecap="round" stroke-linejoin="round" stroke-width="var(--_size, 1.5)" d="M19 22a3 3 0 1 0 0-6 3 3 0 0 0 0 6Z"/><g stroke="currentColor" stroke-linecap="round" stroke-linejoin="round" stroke-width="var(--_size, 1.5)" opacity=".4"><path d="M19 16V6.5c0-1.1-.9-2-2-2h-5.5"/><path d="m14 2-3 2.5L14 7M5 8v9.5c0 1.1.9 2 2 2h5.5"/><path d="m10 22 3-2.5-3-2.5"/></g><path stroke="currentColor" stroke-linecap="round" stroke-linejoin="round" stroke-width="var(--_size, 1.5)" d="M5 8a3 3 0 1 0 0-6 3 3 0 0 0 0 6Z"/></svg>