<svg viewBox="0 0 24 24" fill="none"><path stroke="currentColor" stroke-linecap="round" stroke-linejoin="round" stroke-width="var(--_size, 1.5)" d="M2 9V6.5C2 4.01 4.01 2 6.5 2H9M15 2h2.5C19.99 2 22 4.01 22 6.5V9M22 16v1.5c0 2.49-2.01 4.5-4.5 4.5H16M9 22H6.5C4.01 22 2 19.99 2 17.5V15"/><path stroke="currentColor" stroke-linecap="round" stroke-linejoin="round" stroke-width="var(--_size, 1.5)" d="M8.5 11a2.5 2.5 0 1 0 0-5 2.5 2.5 0 0 0 0 5ZM7.5 18a1.5 1.5 0 1 0 0-3 1.5 1.5 0 0 0 0 3ZM16.5 9a1.5 1.5 0 1 0 0-3 1.5 1.5 0 0 0 0 3ZM15.5 18a2.5 2.5 0 1 0 0-5 2.5 2.5 0 0 0 0 5Z" opacity=".4"/></svg>