<svg viewBox="0 0 24 24" fill="none"><path stroke="currentColor" stroke-linecap="round" stroke-linejoin="round" stroke-width="var(--_size, 1.5)" d="M19.5 12.5A2.5 2.5 0 0 1 22 10V9c0-4-1-5-5-5H7C3 4 2 5 2 9v.5a2.5 2.5 0 0 1 0 5v.5c0 4 1 5 5 5h10c4 0 5-1 5-5a2.5 2.5 0 0 1-2.5-2.5Z"/><path stroke="currentColor" stroke-linecap="round" stroke-linejoin="round" stroke-width="var(--_size, 1.5)" d="m9 14.75 6-6" opacity=".4"/><path stroke="currentColor" stroke-linecap="round" stroke-linejoin="round" stroke-width="2" d="M14.995 14.75h.009M8.995 9.25h.008" opacity=".4"/></svg>