<svg viewBox="0 0 24 24" fill="none"><path fill="currentColor" d="M19 22.75c-.41 0-.75-.34-.75-.75V11c0-.41.34-.75.75-.75s.75.34.75.75v11c0 .41-.34.75-.75.75ZM19 7.75c-.41 0-.75-.34-.75-.75V2c0-.41.34-.75.75-.75s.75.34.75.75v5c0 .41-.34.75-.75.75ZM12 22.75c-.41 0-.75-.34-.75-.75v-5c0-.41.34-.75.75-.75s.75.34.75.75v5c0 .41-.34.75-.75.75ZM12 13.75c-.41 0-.75-.34-.75-.75V2c0-.41.34-.75.75-.75s.75.34.75.75v11c0 .41-.34.75-.75.75ZM5 22.75c-.41 0-.75-.34-.75-.75V11c0-.41.34-.75.75-.75s.75.34.75.75v11c0 .41-.34.75-.75.75ZM5 7.75c-.41 0-.75-.34-.75-.75V2c0-.41.34-.75.75-.75s.75.34.75.75v5c0 .41-.34.75-.75.75Z"/><path fill="currentColor" d="M7 11.75H3c-.41 0-.75-.34-.75-.75s.34-.75.75-.75h4c.41 0 .75.34.75.75s-.34.75-.75.75ZM21 11.75h-4c-.41 0-.75-.34-.75-.75s.34-.75.75-.75h4c.41 0 .75.34.75.75s-.34.75-.75.75ZM14 13.75h-4c-.41 0-.75-.34-.75-.75s.34-.75.75-.75h4c.41 0 .75.34.75.75s-.34.75-.75.75Z"/></svg>